<svg width="512" height="512" viewBox="0 0 512 512" fill="none" xmlns="http://www.w3.org/2000/svg">
<g clip-path="url(#clip0_7_190)">
<path d="M512 0H0V512H512V0Z" fill="#772236" style="fill:#772236;fill:color(display-p3 0.4667 0.1333 0.2118);fill-opacity:1;"/>
<path opacity="0.9" d="M0 512V200C70 160 120 110 180 100C240 90 280 150 340 120C400 90 450 70 512 100V512H0Z" fill="#C6395A" style="fill:#C6395A;fill:color(display-p3 0.7750 0.2250 0.3533);fill-opacity:1;"/>
<path opacity="0.9" d="M0 512V310C80 280 130 240 200 250C270 260 310 290 370 260C430 230 470 220 512 240V512H0Z" fill="#DD889C" style="fill:#DD889C;fill:color(display-p3 0.8667 0.5333 0.6118);fill-opacity:1;"/>
<path opacity="0.85" d="M0 512V410C80 390 140 370 210 380C280 390 330 410 390 390C450 370 480 360 512 370V512H0Z" fill="#F4D7DE" style="fill:#F4D7DE;fill:color(display-p3 0.9569 0.8431 0.8706);fill-opacity:1;"/>
<path d="M234.383 387V178.488H287.759V387H234.383ZM205.199 218.424V178.488H287.759V218.424H205.199ZM253.967 153.528C243.471 153.528 235.663 150.84 230.543 145.464C225.679 139.832 223.247 132.92 223.247 124.728C223.247 116.024 225.679 108.984 230.543 103.608C235.663 98.232 243.471 95.544 253.967 95.544C264.463 95.544 272.143 98.232 277.007 103.608C281.871 108.984 284.303 116.024 284.303 124.728C284.303 132.92 281.871 139.832 277.007 145.464C272.143 150.84 264.463 153.528 253.967 153.528Z" fill="white" style="fill:white;fill-opacity:1;"/>
</g>
<defs>
<clipPath id="clip0_7_190">
<rect width="512" height="512" fill="white" style="fill:white;fill-opacity:1;"/>
</clipPath>
</defs>
</svg>
